<svg id="Layer_1" data-name="Layer 1" xmlns="http://www.w3.org/2000/svg" viewBox="0 0 535.69 108.17"><defs><style>.cls-1{fill:#00bd80;}.cls-2{fill:#00c2e5;}.cls-3{fill:#20201e;}</style></defs><title>LAB_eng_RGB_V2</title><path class="cls-1" d="M29.25,32.78c-8-8.62-9-18.81-3-30.28H11.08A31.37,31.37,0,0,0,6.81,17c-.38,9.58,3.73,19,11.88,27.35C21.94,47.7,60.12,89,65,94.22v-23Z" transform="translate(0 0)"/><path class="cls-2" d="M23.31,68.82l34.3-32.24L47,25.1,13.57,56.51C4.85,64.72.15,74.16,0,83.82A30.74,30.74,0,0,0,2.64,96.68H17.35c-4.09-10.93-2.09-20.29,6-27.86" transform="translate(0 0)"/><path class="cls-3" d="M116.63,44H89.08V2.42h8.44V36.61h19.11Zm27.86-9.67H131.61L128.36,44h-9.89L135.15,2.4H141L157.65,44h-9.92ZM142.2,27.6,138,15,133.9,27.6ZM160.26,44V2.42h15A13.68,13.68,0,0,1,184.73,6a11.29,11.29,0,0,1,3.93,8.73,7.74,7.74,0,0,1-3.77,7,11,11,0,0,1,5,4,10.12,10.12,0,0,1,2.1,6.05,11.33,11.33,0,0,1-3.9,8.73,13.49,13.49,0,0,1-9.4,3.54h-18.4Zm18.4-25.65a4.51,4.51,0,0,0,1.41-3.29,5.33,5.33,0,0,0-1.41-3.68,4.42,4.42,0,0,0-3.42-1.57h-6.46v10h6.46A4.66,4.66,0,0,0,178.66,18.38Zm3.49,16.67a5.55,5.55,0,0,0,1.33-3.68,4.59,4.59,0,0,0-1.37-3.29,4.36,4.36,0,0,0-3.24-1.41H168.78v9.95h10.14A4.12,4.12,0,0,0,182.15,35.05Zm30.23,5.67A12,12,0,0,1,208,31.6V2.4h8.52V30.15a6.05,6.05,0,0,0,2.23,4.92,8.65,8.65,0,0,0,5.7,1.84,9.62,9.62,0,0,0,5.45-1.68,5.69,5.69,0,0,0,2.52-5.08V2.4H241V31.6a11.57,11.57,0,0,1-4.6,9.3q-4.6,3.76-11.86,3.76Q216.72,44.66,212.38,40.72ZM275.43,44H267.1V26a5.54,5.54,0,0,0-1.79-4.28A6.33,6.33,0,0,0,261,20.22a8.65,8.65,0,0,0-5,1.4Q254,23,254,27V44h-8.3V13.49h7.8v4.9a14.87,14.87,0,0,1,4.26-4.06,10.35,10.35,0,0,1,5.57-1.5A11.4,11.4,0,0,1,272,16.37q3.3,3.54,3.38,9.58V44Zm4.66-35.06a5,5,0,0,1-1.51-3.69,5.11,5.11,0,0,1,1.51-3.71,5,5,0,0,1,7.25,0,5.13,5.13,0,0,1,1.5,3.71,5,5,0,0,1-1.5,3.69,5.06,5.06,0,0,1-7.25,0ZM279.56,44V13.49h8.3V44Zm23.63,0L290.56,13.49h9.72l7,22.53,7-22.53H324L311.37,44Zm36.89.6a16.21,16.21,0,0,1-11.58-4.55,15.29,15.29,0,0,1-4.85-11.45,15.52,15.52,0,0,1,4.53-11.29,14.82,14.82,0,0,1,10.87-4.48,13.9,13.9,0,0,1,10.84,4.6A16.25,16.25,0,0,1,354,28.74a14,14,0,0,1-.31,2.85H332.08a6.35,6.35,0,0,0,2.56,4,8.33,8.33,0,0,0,5.43,1.83,9,9,0,0,0,6.62-2.57l4.86,5.59A17.82,17.82,0,0,1,340.08,44.63Zm5.79-19.08a6.64,6.64,0,0,0-2-4.28,6.41,6.41,0,0,0-4.86-1.85,6.82,6.82,0,0,0-7,6.13Zm19,18.42h-8.33V13.43h7.82v4.45q2.52-5.1,6.9-5.1a7,7,0,0,1,4.89,1.48l-3.35,6.56a5.06,5.06,0,0,0-2.43-.63,5.14,5.14,0,0,0-3.87,1.74,6.07,6.07,0,0,0-1.63,4.33V44Zm23,.66a26,26,0,0,1-8.21-1.1,15.09,15.09,0,0,1-5.25-2.89l3.07-5.93a19.62,19.62,0,0,0,4.57,2.47,14.63,14.63,0,0,0,5.24.93,5.61,5.61,0,0,0,3.28-.76,2.38,2.38,0,0,0,1.08-2,1.82,1.82,0,0,0-.56-1.38,4,4,0,0,0-1.51-.84l-8.27-2.91a8.4,8.4,0,0,1-4.18-2.79,7.44,7.44,0,0,1-1.38-4.56,8.82,8.82,0,0,1,3.79-7.17,14.77,14.77,0,0,1,9.29-2.89q7.13,0,11.54,3.45l-3.44,5.85a12.79,12.79,0,0,0-7.77-2.62,4.93,4.93,0,0,0-3.25.84,2.6,2.6,0,0,0-1,1.92,2.23,2.23,0,0,0,.54,1.47,4,4,0,0,0,1.75,1.07l7.15,2.51a10.36,10.36,0,0,1,4.83,3.12,7.59,7.59,0,0,1,1.62,4.92,7.53,7.53,0,0,1-4,6.94A17.8,17.8,0,0,1,387.87,44.63ZM405,8.94a5,5,0,0,1-1.51-3.69A5.11,5.11,0,0,1,405,1.54a5,5,0,0,1,7.25,0,5.12,5.12,0,0,1,1.49,3.71,5.08,5.08,0,0,1-1.49,3.69,5.06,5.06,0,0,1-7.25,0ZM404.42,44V13.49h8.3V44Zm29,.63a13.21,13.21,0,0,1-8.69-2.75c-2.22-1.83-3.33-4.61-3.33-8.31V20.05h-5.59V13.32h5.59V7.24l8.3-3v9.1h8.44v6.73h-8.44V33.57a3.93,3.93,0,0,0,1.41,3.25A5.8,5.8,0,0,0,434.84,38a13.62,13.62,0,0,0,3.27-.43V44.2A22.48,22.48,0,0,1,433.39,44.63Zm8.36,11.09V49.08a21.69,21.69,0,0,0,4.55.4,3.65,3.65,0,0,0,2.22-.66A4.42,4.42,0,0,0,450,46.94l1.79-4.31L439.62,13.49h9.81l6.06,19.25,6.23-19.25H471L457.47,48.34a12.69,12.69,0,0,1-4.25,5.82,11.44,11.44,0,0,1-6.93,2A24.53,24.53,0,0,1,441.75,55.72ZM498,44.63A15.44,15.44,0,0,1,486.69,40,15.25,15.25,0,0,1,482,28.74a15.94,15.94,0,0,1,16-15.91,15.38,15.38,0,0,1,11.29,4.66A15.34,15.34,0,0,1,514,28.74a15.91,15.91,0,0,1-16,15.89Zm0-7.39a7,7,0,0,0,5.41-2.5,8.64,8.64,0,0,0,2.25-6,8.68,8.68,0,0,0-2.25-6,7.11,7.11,0,0,0-10.83,0,8.72,8.72,0,0,0-2.23,6,8.67,8.67,0,0,0,2.23,6A7,7,0,0,0,498,37.24ZM518.92,44V20.22h-5.59V13.49h5.59q0-6.64,3.34-9.18A14,14,0,0,1,531,1.77a29.08,29.08,0,0,1,4.72.43v7a11.61,11.61,0,0,0-3.27-.43,6.59,6.59,0,0,0-4,.93,3.27,3.27,0,0,0-1.17,2.72v1.08h8.44v6.73h-8.44V44ZM111.8,87H98.92l-3.24,9.64H85.79L102.47,55h5.81L125,96.64H115Zm-2.29-6.76-4.16-12.6-4.13,12.6Zm17.84,27.92v-42h7.8v5q4.44-5.64,9.75-5.65a13.73,13.73,0,0,1,10.49,4.65,16.86,16.86,0,0,1,0,22.47,13.73,13.73,0,0,1-10.49,4.65q-5,0-9.25-5.13v16h-8.3ZM149,87.41a8.83,8.83,0,0,0,0-12.06,7.85,7.85,0,0,0-11.49,0,8.83,8.83,0,0,0,0,12.06,7.85,7.85,0,0,0,11.49,0Zm13.52,20.75v-42h7.8v5q4.44-5.64,9.75-5.65a13.72,13.72,0,0,1,10.49,4.65,16.86,16.86,0,0,1,0,22.47,13.73,13.73,0,0,1-10.49,4.65q-5,0-9.25-5.13v16h-8.3Zm21.66-20.75a8.83,8.83,0,0,0,0-12.06,7.68,7.68,0,0,0-5.76-2.5,7.6,7.6,0,0,0-5.73,2.5,8.83,8.83,0,0,0,0,12.06,7.85,7.85,0,0,0,11.49,0ZM198,96.64V55.06h8.33V96.64Zm13.89-35.06a5,5,0,0,1-1.51-3.69,5.11,5.11,0,0,1,1.51-3.71,5,5,0,0,1,7.25,0,5.13,5.13,0,0,1,1.5,3.71,5,5,0,0,1-1.5,3.69,5.06,5.06,0,0,1-7.25,0Zm-.53,35.06V66.13h8.3V96.64Zm28.16.63a16.21,16.21,0,0,1-11.58-4.55A16.13,16.13,0,0,1,227.61,70a14.8,14.8,0,0,1,10.87-4.48,13.91,13.91,0,0,1,10.84,4.6,16.26,16.26,0,0,1,4.14,11.28,14,14,0,0,1-.31,2.85H231.52a6.35,6.35,0,0,0,2.56,4A8.39,8.39,0,0,0,239.52,90a9,9,0,0,0,6.62-2.57L251,93A18,18,0,0,1,239.51,97.27Zm5.78-19.08a6.69,6.69,0,0,0-2-4.28,6.41,6.41,0,0,0-4.86-1.85,6.82,6.82,0,0,0-7,6.13Zm15.35,14.43a16.85,16.85,0,0,1,0-22.49,13.75,13.75,0,0,1,10.51-4.66q5,0,9.22,5.3V55h8.3V96.62h-7.8v-5c-3,3.78-6.21,5.67-9.72,5.67A13.77,13.77,0,0,1,260.64,92.62Zm17.86-5.23a8.79,8.79,0,0,0,0-12,7.85,7.85,0,0,0-11.49,0,8.79,8.79,0,0,0,0,12,7.85,7.85,0,0,0,11.49,0Zm41.88,9.88a23.16,23.16,0,0,1-9.67-2.15,16.35,16.35,0,0,1-7.21-6l5.62-5.33a12.26,12.26,0,0,0,5,4.19,14.24,14.24,0,0,0,6.27,1.57,9,9,0,0,0,5-1.31,4,4,0,0,0,2-3.45,3.37,3.37,0,0,0-1.17-2.5,9.56,9.56,0,0,0-3.69-1.87l-9.61-3A13.25,13.25,0,0,1,307,73.8a9.61,9.61,0,0,1-2.24-6.73,11.17,11.17,0,0,1,4.58-8.93,17,17,0,0,1,11-3.71A22.12,22.12,0,0,1,329,56a16.44,16.44,0,0,1,6.52,5l-6.12,5.19a9.13,9.13,0,0,0-3.62-3,12.18,12.18,0,0,0-5.18-1,7.43,7.43,0,0,0-4.37,1.33A4,4,0,0,0,314.35,67a3.55,3.55,0,0,0,.67,2.28,4,4,0,0,0,2.12,1.34L328,74.05a14.06,14.06,0,0,1,6.54,3.88,9.93,9.93,0,0,1,2.38,6.7q0,5.22-4.75,8.93A18.7,18.7,0,0,1,320.38,97.27Zm35,0A17.08,17.08,0,0,1,343.64,93q-4.81-4.27-4.82-11.61t4.86-11.59a16.9,16.9,0,0,1,11.71-4.29,15.83,15.83,0,0,1,10.87,4.16l-4.86,5.73a7.12,7.12,0,0,0-5.76-2.54,8.52,8.52,0,1,0,0,17,7.14,7.14,0,0,0,5.76-2.54l4.86,5.73A15.72,15.72,0,0,1,355.39,97.27Zm14.29-35.69a5,5,0,0,1-1.51-3.69,5.11,5.11,0,0,1,1.51-3.71,5,5,0,0,1,7.25,0,5.13,5.13,0,0,1,1.5,3.71,5,5,0,0,1-1.5,3.69,5.06,5.06,0,0,1-7.25,0Zm-.53,35.06V66.13h8.3V96.64Zm27.68.63a16.21,16.21,0,0,1-11.58-4.55,15.33,15.33,0,0,1-4.85-11.45A15.52,15.52,0,0,1,384.93,70,14.82,14.82,0,0,1,395.8,65.5a13.9,13.9,0,0,1,10.84,4.6,16.25,16.25,0,0,1,4.13,11.28,14,14,0,0,1-.31,2.85H388.83a6.35,6.35,0,0,0,2.56,4A8.33,8.33,0,0,0,396.82,90a9,9,0,0,0,6.62-2.57L408.3,93A17.86,17.86,0,0,1,396.83,97.27Zm5.78-19.08a6.64,6.64,0,0,0-2-4.28,6.41,6.41,0,0,0-4.86-1.85,6.82,6.82,0,0,0-7,6.13Zm40.72,18.45H435v-18a5.54,5.54,0,0,0-1.79-4.28,6.35,6.35,0,0,0-4.33-1.51,8.65,8.65,0,0,0-4.95,1.4q-2.07,1.39-2.07,5.36v17h-8.3V66.13h7.8V71A14.87,14.87,0,0,1,425.62,67a10.44,10.44,0,0,1,5.58-1.5A11.4,11.4,0,0,1,440,69q3.3,3.54,3.38,9.58Zm19.37.63A17.08,17.08,0,0,1,451,93q-4.81-4.27-4.82-11.61c.05-4.87,1.68-8.73,4.86-11.59A16.9,16.9,0,0,1,462.7,65.5a15.83,15.83,0,0,1,10.87,4.16l-4.86,5.73A7.14,7.14,0,0,0,463,72.85a8.52,8.52,0,1,0,0,17,7.14,7.14,0,0,0,5.76-2.54l4.86,5.73A15.72,15.72,0,0,1,462.7,97.27Zm26.77,0a16.21,16.21,0,0,1-11.58-4.55A15.33,15.33,0,0,1,473,81.27,15.52,15.52,0,0,1,477.57,70a14.82,14.82,0,0,1,10.87-4.48,13.9,13.9,0,0,1,10.84,4.6,16.25,16.25,0,0,1,4.13,11.28,14,14,0,0,1-.31,2.85H481.47a6.35,6.35,0,0,0,2.56,4A8.33,8.33,0,0,0,489.46,90a9,9,0,0,0,6.62-2.57L500.94,93A17.86,17.86,0,0,1,489.47,97.27Zm5.79-19.08a6.64,6.64,0,0,0-2-4.28,6.41,6.41,0,0,0-4.86-1.85,6.82,6.82,0,0,0-7,6.13Zm22.35,19.08a26,26,0,0,1-8.21-1.1,15.09,15.09,0,0,1-5.25-2.89l3.07-5.93a19.62,19.62,0,0,0,4.57,2.47,14.63,14.63,0,0,0,5.24.93,5.61,5.61,0,0,0,3.28-.76A2.4,2.4,0,0,0,521.39,88a1.82,1.82,0,0,0-.56-1.38,4,4,0,0,0-1.51-.84l-8.27-2.91a8.4,8.4,0,0,1-4.18-2.79,7.44,7.44,0,0,1-1.38-4.56,8.82,8.82,0,0,1,3.79-7.17,14.77,14.77,0,0,1,9.29-2.89q7.13,0,11.54,3.45l-3.44,5.85a12.79,12.79,0,0,0-7.77-2.62,4.93,4.93,0,0,0-3.25.84,2.6,2.6,0,0,0-1,1.92,2.23,2.23,0,0,0,.54,1.47A4,4,0,0,0,517,77.48L524.1,80a10.36,10.36,0,0,1,4.83,3.12A8.09,8.09,0,0,1,526.51,95,17.8,17.8,0,0,1,517.61,97.27Z" transform="translate(0 0)"/></svg>